<svg xmlns="http://www.w3.org/2000/svg" width="72" height="21" fill="none"><rect width="72" height="21" fill="#F9F9F9" rx="10.5"/><path fill="#000" d="M16.541 9h-.88a1.831 1.831 0 0 0-.742-1.15 1.99 1.99 0 0 0-.608-.299 2.425 2.425 0 0 0-.696-.1c-.44 0-.839.112-1.196.335-.355.222-.638.55-.849.983-.208.433-.313.965-.313 1.595s.105 1.16.313 1.594c.21.433.494.761.849.984.357.222.756.334 1.196.334.242 0 .474-.034.696-.1.223-.066.425-.164.608-.295a1.873 1.873 0 0 0 .742-1.154h.88a2.93 2.93 0 0 1-.362.998 2.726 2.726 0 0 1-1.53 1.215c-.322.106-.667.16-1.034.16-.62 0-1.171-.152-1.654-.455-.483-.303-.863-.734-1.14-1.293-.277-.558-.416-1.221-.416-1.988 0-.767.139-1.43.416-1.989.277-.559.657-.99 1.14-1.293.482-.303 1.034-.454 1.654-.454.367 0 .712.053 1.034.16.324.106.617.262.877.468.26.204.478.453.653.746.176.291.296.624.363.998Zm3.526 5.114c-.492 0-.925-.118-1.296-.352a2.389 2.389 0 0 1-.867-.984c-.206-.421-.309-.913-.309-1.477 0-.568.103-1.064.31-1.488.208-.424.496-.753.866-.987.371-.234.803-.352 1.296-.352.492 0 .923.118 1.293.352.371.234.66.563.866.987.208.424.313.92.313 1.488 0 .564-.105 1.056-.313 1.477-.206.422-.495.75-.866.984-.37.234-.8.352-1.293.352Zm0-.753c.374 0 .682-.096.923-.288.242-.192.42-.444.537-.756.115-.313.174-.651.174-1.016 0-.364-.059-.704-.175-1.019a1.717 1.717 0 0 0-.536-.764c-.241-.194-.549-.29-.923-.29s-.682.096-.923.29c-.242.195-.42.45-.537.764a2.925 2.925 0 0 0-.174 1.02c0 .364.058.702.174 1.015.116.312.295.564.537.756.241.192.549.288.923.288Zm4.151-4.816 1.307 2.23 1.307-2.23h.966l-1.762 2.728L27.798 14h-.966l-1.307-2.117L24.218 14h-.966l1.733-2.727-1.733-2.728h.966Zm4.776 7.5v-7.5h.81v.867h.099a7.51 7.51 0 0 1 .255-.362c.112-.15.27-.282.476-.398.209-.118.49-.178.845-.178.46 0 .864.115 1.215.345.35.23.624.555.82.976.197.422.295.919.295 1.492 0 .578-.098 1.078-.295 1.502a2.325 2.325 0 0 1-.817.98c-.348.23-.749.345-1.203.345-.35 0-.631-.058-.842-.174a1.559 1.559 0 0 1-.486-.402 5.373 5.373 0 0 1-.263-.376h-.071v2.883h-.838Zm.823-4.772c0 .412.06.775.182 1.09.12.312.297.558.529.735.232.175.516.263.852.263.35 0 .643-.093.877-.277.237-.187.414-.438.533-.753.12-.317.18-.67.18-1.058 0-.384-.058-.73-.177-1.037a1.602 1.602 0 0 0-.529-.735c-.234-.183-.529-.274-.884-.274-.34 0-.627.087-.86.26-.231.17-.407.41-.525.717a2.95 2.95 0 0 0-.178 1.069Zm6.876 2.855c-.346 0-.66-.065-.942-.196a1.614 1.614 0 0 1-.67-.571c-.167-.251-.25-.554-.25-.91 0-.312.062-.565.185-.76.123-.196.288-.35.494-.46.206-.112.433-.195.682-.25.25-.056.503-.101.756-.134.332-.043.6-.075.806-.096.209-.024.36-.063.455-.117.097-.055.145-.15.145-.285v-.028c0-.35-.096-.623-.287-.817-.19-.194-.477-.29-.863-.29-.4 0-.714.087-.941.262a1.553 1.553 0 0 0-.48.56l-.795-.283a1.91 1.91 0 0 1 .568-.774c.24-.187.5-.318.781-.39.284-.077.564-.115.838-.115.176 0 .377.022.604.064.23.04.451.125.664.252.216.128.394.321.536.58.142.257.214.603.214 1.036V14h-.839v-.739h-.042a1.475 1.475 0 0 1-.284.38c-.133.135-.31.25-.53.345-.22.095-.488.142-.805.142Zm.127-.753c.332 0 .611-.065.838-.195a1.33 1.33 0 0 0 .696-1.154v-.768c-.035.043-.113.082-.234.118a3.952 3.952 0 0 1-.412.088 18.409 18.409 0 0 1-.802.107 3.203 3.203 0 0 0-.611.139 1.053 1.053 0 0 0-.455.28c-.113.123-.17.291-.17.504 0 .292.108.512.323.66.218.148.493.221.827.221Zm7.553-2.486v.782H41.36v-.782h3.012ZM41.56 8.545V14h-.838V8.545h.838Zm3.452 0V14h-.838V8.545h.838Zm2.368 4.22 2.628-4.22h.966V14h-.838V9.781L47.522 14h-.98V8.545h.838v4.22Zm4.387-3.438v-.782h4.432v.782h-1.79V14h-.838V9.327h-1.804Zm6.379 1.193h1.562c.64 0 1.128.162 1.467.486.338.325.508.736.508 1.233 0 .326-.076.623-.228.891a1.65 1.65 0 0 1-.667.636c-.294.156-.654.234-1.08.234h-2.287V8.545h.838v4.674h1.45c.33 0 .603-.088.816-.263.213-.175.32-.4.32-.675a.887.887 0 0 0-.32-.706c-.213-.183-.485-.274-.817-.274h-1.562v-.781Z"/></svg>